<svg width="111" height="32" viewBox="0 0 111 32" fill="none" xmlns="http://www.w3.org/2000/svg">
<g id="appstore">
<g id="Group">
<path id="Vector" d="M110.153 28.3093C110.153 30.0146 108.743 31.396 106.998 31.396H3.77268C2.02933 31.396 0.614258 30.0146 0.614258 28.3093V3.6942C0.614258 1.98969 2.02933 0.603516 3.77268 0.603516H106.998C108.743 0.603516 110.152 1.98969 110.152 3.6942L110.153 28.3093Z" fill="#202020"/>
<path id="path16" d="M106.667 0.641003C108.566 0.641003 110.112 2.148 110.112 4V28C110.112 29.852 108.566 31.359 106.667 31.359H4.10256C2.20308 31.359 0.657436 29.852 0.657436 28V4C0.657436 2.148 2.20308 0.641003 4.10256 0.641003H106.667ZM106.667 4.05326e-06H4.10256C1.84718 4.05326e-06 0 1.801 0 4V28C0 30.199 1.84718 32 4.10256 32H106.667C108.922 32 110.769 30.199 110.769 28V4C110.769 1.801 108.922 4.05326e-06 106.667 4.05326e-06Z" fill="#A6A6A6"/>
<g id="Group_2">
<g id="Group_3">
<g id="Vector_2">
<path d="M24.7206 15.8263C24.6968 13.2479 26.8859 11.9935 26.986 11.9351C25.7462 10.1727 23.8246 9.93186 23.1493 9.91266C21.5354 9.74706 19.9698 10.8543 19.1477 10.8543C18.3091 10.8543 17.043 9.92866 15.6785 9.95586C13.9226 9.98226 12.28 10.9735 11.379 12.5127C9.51976 15.6511 10.9064 20.2631 12.6878 22.7999C13.5788 24.0423 14.6201 25.4295 15.9829 25.3807C17.3163 25.3271 17.8143 24.5519 19.4234 24.5519C21.0176 24.5519 21.4853 25.3807 22.8752 25.3495C24.3062 25.3271 25.2071 24.1015 26.067 22.8479C27.0968 21.4239 27.5103 20.0215 27.5267 19.9495C27.4931 19.9383 24.7477 18.9167 24.7206 15.8263Z" fill="white"/>
<path d="M22.0949 8.24386C22.8121 7.36946 23.3027 6.17986 23.1665 4.97266C22.1286 5.01746 20.8305 5.67266 20.083 6.52786C19.4217 7.28146 18.8309 8.51666 18.9836 9.67826C20.1495 9.76306 21.3466 9.10466 22.0949 8.24386Z" fill="white"/>
</g>
</g>
</g>
<g id="Group_4">
<path id="Vector_3" d="M44.0173 25.2021H42.1539L41.1332 22.0749H37.5853L36.613 25.2021H34.7988L38.3139 14.5557H40.485L44.0173 25.2021ZM40.8255 20.7629L39.9024 17.9829C39.8048 17.6989 39.6218 17.0301 39.3519 15.9773H39.319C39.2115 16.4301 39.0384 17.0989 38.8005 17.9829L37.8938 20.7629H40.8255V20.7629Z" fill="white"/>
<path id="Vector_4" d="M53.057 21.2698C53.057 22.5754 52.6951 23.6074 51.9714 24.365C51.3232 25.0394 50.5183 25.3762 49.5575 25.3762C48.5204 25.3762 47.7753 25.013 47.3216 24.2866H47.2888V28.3306H45.5394V20.053C45.5394 19.2322 45.5173 18.3898 45.4746 17.5258H47.0131L47.1107 18.7426H47.1435C47.7269 17.8258 48.6123 17.3682 49.8004 17.3682C50.7292 17.3682 51.5046 17.7258 52.1249 18.4418C52.7468 19.1586 53.057 20.101 53.057 21.2698ZM51.2748 21.3322C51.2748 20.585 51.1025 19.969 50.7563 19.4842C50.378 18.9786 49.8701 18.7258 49.2334 18.7258C48.8018 18.7258 48.4096 18.8666 48.0592 19.1442C47.708 19.4242 47.4783 19.7898 47.3708 20.2426C47.3167 20.4538 47.2896 20.6266 47.2896 20.7626V22.0426C47.2896 22.601 47.4652 23.0722 47.8164 23.457C48.1675 23.8418 48.6237 24.0338 49.185 24.0338C49.8438 24.0338 50.3567 23.7858 50.7234 23.2914C51.091 22.7962 51.2748 22.1434 51.2748 21.3322Z" fill="white"/>
<path id="Vector_5" d="M62.1138 21.2707C62.1138 22.5763 61.7519 23.6083 61.0274 24.3659C60.38 25.0403 59.5751 25.3771 58.6143 25.3771C57.5771 25.3771 56.8321 25.0139 56.3792 24.2875H56.3464V28.3315H54.597V20.0539C54.597 19.2331 54.5749 18.3907 54.5322 17.5267H56.0707L56.1683 18.7435H56.2011C56.7837 17.8267 57.6691 17.3691 58.858 17.3691C59.786 17.3691 60.5614 17.7267 61.1833 18.4427C61.8028 19.1595 62.1138 20.1019 62.1138 21.2707ZM60.3316 21.3331C60.3316 20.5859 60.1585 19.9699 59.8122 19.4851C59.434 18.9795 58.9277 18.7267 58.2902 18.7267C57.8578 18.7267 57.4664 18.8675 57.1152 19.1451C56.764 19.4251 56.5351 19.7907 56.4276 20.2435C56.3743 20.4547 56.3464 20.6275 56.3464 20.7635V22.0435C56.3464 22.6019 56.522 23.0731 56.8715 23.4579C57.2227 23.8419 57.6789 24.0347 58.2418 24.0347C58.9006 24.0347 59.4135 23.7867 59.7802 23.2923C60.1478 22.7971 60.3316 22.1443 60.3316 21.3331Z" fill="white"/>
<path id="Vector_6" d="M72.238 22.2172C72.238 23.1228 71.9156 23.8596 71.2682 24.4284C70.5568 25.05 69.5664 25.3604 68.2938 25.3604C67.1188 25.3604 66.1769 25.1396 65.4639 24.6972L65.8692 23.2756C66.6372 23.7284 67.4799 23.9556 68.398 23.9556C69.0569 23.9556 69.5697 23.81 69.9381 23.5204C70.3049 23.2308 70.4879 22.842 70.4879 22.3572C70.4879 21.9252 70.3369 21.5612 70.0341 21.266C69.733 20.9708 69.23 20.6964 68.5277 20.4428C66.6159 19.7476 65.6608 18.7292 65.6608 17.39C65.6608 16.5148 65.9956 15.7972 66.6659 15.2388C67.3338 14.6796 68.2249 14.4004 69.3391 14.4004C70.3328 14.4004 71.1582 14.5692 71.8171 14.906L71.3798 16.2964C70.7644 15.97 70.0686 15.8068 69.2899 15.8068C68.6745 15.8068 68.1937 15.9548 67.8491 16.2492C67.5578 16.5124 67.4118 16.8332 67.4118 17.2132C67.4118 17.634 67.5783 17.982 67.9131 18.2556C68.2044 18.5084 68.7336 18.782 69.5016 19.0772C70.4411 19.446 71.1312 19.8772 71.5751 20.3716C72.0173 20.8644 72.238 21.4812 72.238 22.2172Z" fill="white"/>
<path id="Vector_7" d="M78.0226 18.8061H76.0944V22.5333C76.0944 23.4813 76.4341 23.9549 77.1151 23.9549C77.4277 23.9549 77.687 23.9285 77.8922 23.8757L77.9406 25.1709C77.5959 25.2965 77.1422 25.3597 76.5802 25.3597C75.8893 25.3597 75.3494 25.1541 74.9596 24.7437C74.5715 24.3325 74.3763 23.6429 74.3763 22.6741V18.8045H73.2275V17.5245H74.3763V16.1189L76.0944 15.6133V17.5245H78.0226V18.8061Z" fill="white"/>
<path id="Vector_8" d="M86.7218 21.3011C86.7218 22.4811 86.3755 23.4499 85.6846 24.2075C84.9601 24.9875 83.9985 25.3763 82.7997 25.3763C81.6444 25.3763 80.7246 25.0027 80.0387 24.2555C79.3527 23.5083 79.0098 22.5651 79.0098 21.4283C79.0098 20.2387 79.3626 19.2643 80.0707 18.5067C80.7771 17.7483 81.7306 17.3691 82.9294 17.3691C84.0846 17.3691 85.0143 17.7427 85.7158 18.4907C86.387 19.2163 86.7218 20.1531 86.7218 21.3011ZM84.9068 21.3563C84.9068 20.6483 84.7517 20.0411 84.4375 19.5347C84.0707 18.9219 83.5464 18.6163 82.867 18.6163C82.1638 18.6163 81.6297 18.9227 81.2629 19.5347C80.9486 20.0419 80.7936 20.6587 80.7936 21.3883C80.7936 22.0963 80.9486 22.7035 81.2629 23.2091C81.6412 23.8219 82.1696 24.1275 82.8514 24.1275C83.5193 24.1275 84.0436 23.8155 84.4219 23.1931C84.7443 22.6771 84.9068 22.0635 84.9068 21.3563Z" fill="white"/>
<path id="Vector_9" d="M92.4088 19.0267C92.2357 18.9955 92.0511 18.9795 91.8574 18.9795C91.242 18.9795 90.7661 19.2059 90.4314 19.6595C90.1401 20.0595 89.994 20.5651 89.994 21.1755V25.2035H88.2455L88.2619 19.9443C88.2619 19.0595 88.2398 18.2539 88.1963 17.5275H89.72L89.784 18.9963H89.8324C90.017 18.4915 90.3083 18.0851 90.7071 17.7803C91.0968 17.5059 91.5177 17.3691 91.9715 17.3691C92.1331 17.3691 92.2792 17.3803 92.4088 17.4003V19.0267Z" fill="white"/>
<path id="Vector_10" d="M100.233 21.0007C100.233 21.3063 100.212 21.5639 100.169 21.7743H94.9207C94.9412 22.5327 95.1947 23.1127 95.6821 23.5127C96.1244 23.8703 96.6963 24.0495 97.3986 24.0495C98.1757 24.0495 98.8846 23.9287 99.5221 23.6863L99.7962 24.8703C99.0511 25.1871 98.1715 25.3447 97.1566 25.3447C95.9357 25.3447 94.9773 24.9943 94.2799 24.2943C93.5841 23.5943 93.2354 22.6543 93.2354 21.4751C93.2354 20.3175 93.5595 19.3535 94.2085 18.5847C94.8879 17.7639 95.806 17.3535 96.9613 17.3535C98.0961 17.3535 98.9551 17.7639 99.5385 18.5847C100 19.2367 100.233 20.0431 100.233 21.0007ZM98.5646 20.5583C98.5761 20.0527 98.462 19.6159 98.2249 19.2471C97.9221 18.7727 97.4569 18.5359 96.8308 18.5359C96.2589 18.5359 95.7937 18.7671 95.4384 19.2311C95.1471 19.5999 94.974 20.0423 94.9207 20.5575H98.5646V20.5583Z" fill="white"/>
</g>
<g id="Group_5">
<g id="Group_6">
<path id="Vector_11" d="M40.2454 8.00599C40.2454 8.94759 39.9557 9.65639 39.3773 10.1324C38.8415 10.5716 38.08 10.7916 37.0938 10.7916C36.6048 10.7916 36.1863 10.7708 35.8359 10.7292V5.58439C36.293 5.51239 36.7853 5.47559 37.317 5.47559C38.2565 5.47559 38.9646 5.67479 39.4421 6.07319C39.9771 6.52359 40.2454 7.16759 40.2454 8.00599ZM39.3387 8.02919C39.3387 7.41879 39.173 6.95079 38.8415 6.62439C38.51 6.29879 38.0259 6.13559 37.3884 6.13559C37.1176 6.13559 36.887 6.15319 36.6958 6.18999V10.1012C36.8017 10.1172 36.9953 10.1244 37.2768 10.1244C37.9348 10.1244 38.4427 9.94599 38.8005 9.58919C39.1582 9.23239 39.3387 8.71239 39.3387 8.02919Z" fill="white"/>
<path id="Vector_12" d="M45.053 8.82964C45.053 9.40964 44.8831 9.88484 44.5434 10.2576C44.1873 10.6408 43.7155 10.832 43.1264 10.832C42.5586 10.832 42.1065 10.6488 41.7693 10.2808C41.4329 9.91364 41.2646 9.45044 41.2646 8.89204C41.2646 8.30804 41.4378 7.82884 41.7857 7.45684C42.1336 7.08484 42.6013 6.89844 43.1904 6.89844C43.7582 6.89844 44.2144 7.08164 44.5598 7.44884C44.888 7.80564 45.053 8.26644 45.053 8.82964ZM44.1611 8.85684C44.1611 8.50884 44.0839 8.21044 43.9305 7.96164C43.75 7.66084 43.4932 7.51044 43.1592 7.51044C42.8138 7.51044 42.5512 7.66084 42.3707 7.96164C42.2164 8.21044 42.1401 8.51364 42.1401 8.87204C42.1401 9.22004 42.2173 9.51844 42.3707 9.76724C42.557 10.068 42.8162 10.2184 43.151 10.2184C43.4792 10.2184 43.7369 10.0656 43.9223 9.75924C44.0815 9.50564 44.1611 9.20484 44.1611 8.85684Z" fill="white"/>
<path id="Vector_13" d="M51.4986 6.97461L50.2884 10.7458H49.5007L48.9994 9.10821C48.8722 8.69941 48.7688 8.29301 48.6884 7.88981H48.6728C48.5981 8.30421 48.4947 8.70981 48.3618 9.10821L47.8293 10.7458H47.0326L45.8945 6.97461H46.7782L47.2156 8.76741C47.3214 9.19141 47.4084 9.59541 47.4781 9.97781H47.4937C47.5577 9.66261 47.6636 9.26101 47.8129 8.77541L48.3618 6.97541H49.0625L49.5885 8.73701C49.7157 9.16661 49.819 9.58021 49.8986 9.97861H49.9224C49.9807 9.59061 50.0685 9.17701 50.185 8.73701L50.6543 6.97541H51.4986V6.97461Z" fill="white"/>
<path id="Vector_14" d="M55.9568 10.7459H55.0969V8.58591C55.0969 7.92031 54.8376 7.58751 54.3174 7.58751C54.0622 7.58751 53.8562 7.67871 53.6962 7.86191C53.5379 8.04511 53.4575 8.26111 53.4575 8.50831V10.7451H52.5976V8.05231C52.5976 7.72111 52.5869 7.36191 52.5664 6.97311H53.3221L53.3623 7.56271H53.3861C53.4862 7.37951 53.6355 7.22831 53.8316 7.10751C54.0647 6.96671 54.3256 6.89551 54.6111 6.89551C54.9721 6.89551 55.2724 7.00911 55.5112 7.23711C55.8082 7.51631 55.9568 7.93311 55.9568 8.48671V10.7459V10.7459Z" fill="white"/>
<path id="Vector_15" d="M58.3278 10.7457H57.4688V5.24414H58.3278V10.7457Z" fill="white"/>
<path id="Vector_16" d="M63.3899 8.82866C63.3899 9.40866 63.22 9.88386 62.8803 10.2567C62.5242 10.6399 62.0516 10.8311 61.4633 10.8311C60.8947 10.8311 60.4426 10.6479 60.1062 10.2799C59.7698 9.91266 59.6016 9.44946 59.6016 8.89106C59.6016 8.30706 59.7747 7.82786 60.1226 7.45586C60.4705 7.08386 60.9382 6.89746 61.5265 6.89746C62.0951 6.89746 62.5505 7.08066 62.8967 7.44786C63.2249 7.80466 63.3899 8.26546 63.3899 8.82866ZM62.4972 8.85586C62.4972 8.50786 62.42 8.20946 62.2666 7.96066C62.0869 7.65986 61.8293 7.50946 61.4961 7.50946C61.1499 7.50946 60.8873 7.65986 60.7076 7.96066C60.5534 8.20946 60.4771 8.51266 60.4771 8.87106C60.4771 9.21906 60.5542 9.51746 60.7076 9.76626C60.8939 10.0671 61.1532 10.2175 61.4879 10.2175C61.8161 10.2175 62.0729 10.0647 62.2584 9.75826C62.4184 9.50466 62.4972 9.20386 62.4972 8.85586Z" fill="white"/>
<path id="Vector_17" d="M67.5533 10.7464H66.7812L66.7172 10.312H66.6934C66.4292 10.6584 66.0526 10.832 65.5636 10.832C65.1984 10.832 64.9031 10.7176 64.6807 10.4904C64.4789 10.284 64.3779 10.0272 64.3779 9.72244C64.3779 9.26164 64.5749 8.91044 64.9712 8.66724C65.3666 8.42404 65.923 8.30484 66.6393 8.31044V8.24004C66.6393 7.74324 66.3718 7.49524 65.836 7.49524C65.4544 7.49524 65.118 7.58884 64.8276 7.77444L64.6528 7.22404C65.0122 7.00724 65.4561 6.89844 65.9796 6.89844C66.9904 6.89844 67.4975 7.41844 67.4975 8.45844V9.84724C67.4975 10.224 67.5164 10.524 67.5533 10.7464ZM66.6606 9.45044V8.86884C65.7121 8.85284 65.2378 9.10644 65.2378 9.62884C65.2378 9.82564 65.292 9.97284 65.4027 10.0712C65.5135 10.1696 65.6546 10.2184 65.8229 10.2184C66.0116 10.2184 66.188 10.16 66.3488 10.044C66.5104 9.92724 66.6097 9.77924 66.6466 9.59764C66.6557 9.55684 66.6606 9.50724 66.6606 9.45044Z" fill="white"/>
<path id="Vector_18" d="M72.4384 10.7457H71.6753L71.6351 10.1401H71.6113C71.3676 10.6009 70.9524 10.8313 70.3691 10.8313C69.903 10.8313 69.5149 10.6529 69.2072 10.2961C68.8995 9.93934 68.7461 9.47614 68.7461 8.90734C68.7461 8.29694 68.9127 7.80254 69.2474 7.42494C69.5715 7.07294 69.9687 6.89694 70.4413 6.89694C70.9607 6.89694 71.3241 7.06734 71.5309 7.40894H71.5473V5.24414H72.408V9.72974C72.408 10.0969 72.4179 10.4353 72.4384 10.7457ZM71.5473 9.15534V8.52654C71.5473 8.41774 71.5391 8.32974 71.5235 8.26254C71.4751 8.06094 71.3709 7.89134 71.2125 7.75454C71.0525 7.61774 70.8597 7.54894 70.6374 7.54894C70.3165 7.54894 70.0655 7.67294 69.8809 7.92174C69.6979 8.17054 69.6052 8.48814 69.6052 8.87614C69.6052 9.24894 69.693 9.55134 69.8694 9.78414C70.0556 10.0321 70.3067 10.1561 70.621 10.1561C70.9032 10.1561 71.1289 10.0529 71.3003 9.84574C71.4661 9.65454 71.5473 9.42414 71.5473 9.15534Z" fill="white"/>
<path id="Vector_19" d="M79.7922 8.82866C79.7922 9.40866 79.6224 9.88386 79.2827 10.2567C78.9266 10.6399 78.4556 10.8311 77.8657 10.8311C77.2987 10.8311 76.8466 10.6479 76.5085 10.2799C76.1721 9.91266 76.0039 9.44946 76.0039 8.89106C76.0039 8.30706 76.177 7.82786 76.5249 7.45586C76.8728 7.08386 77.3405 6.89746 77.9305 6.89746C78.4974 6.89746 78.9545 7.08066 79.2991 7.44786C79.6273 7.80466 79.7922 8.26546 79.7922 8.82866ZM78.9011 8.85586C78.9011 8.50786 78.824 8.20946 78.6706 7.96066C78.4892 7.65986 78.2332 7.50946 77.8985 7.50946C77.5539 7.50946 77.2913 7.65986 77.11 7.96066C76.9557 8.20946 76.8794 8.51266 76.8794 8.87106C76.8794 9.21906 76.9565 9.51746 77.11 9.76626C77.2962 10.0671 77.5555 10.2175 77.8903 10.2175C78.2185 10.2175 78.4769 10.0647 78.6624 9.75826C78.8207 9.50466 78.9011 9.20386 78.9011 8.85586Z" fill="white"/>
<path id="Vector_20" d="M84.4159 10.7469H83.5568V8.58688C83.5568 7.92128 83.2975 7.58848 82.7765 7.58848C82.5213 7.58848 82.3154 7.67968 82.1562 7.86288C81.997 8.04608 81.9174 8.26208 81.9174 8.50928V10.7461H81.0567V8.05328C81.0567 7.72208 81.0469 7.36288 81.0264 6.97408H81.7812L81.8214 7.56369H81.8452C81.9462 7.38048 82.0955 7.22928 82.2908 7.10848C82.5246 6.96768 82.7847 6.89648 83.0711 6.89648C83.4313 6.89648 83.7316 7.01008 83.9704 7.23808C84.2682 7.51728 84.4159 7.93408 84.4159 8.48769V10.7469V10.7469Z" fill="white"/>
<path id="Vector_21" d="M90.2033 7.60333H89.2565V9.43533C89.2565 9.90093 89.4247 10.1337 89.7578 10.1337C89.9121 10.1337 90.0401 10.1209 90.141 10.0945L90.1631 10.7305C89.9933 10.7929 89.7701 10.8241 89.4952 10.8241C89.1555 10.8241 88.8913 10.7233 88.7002 10.5217C88.5082 10.3201 88.413 9.98093 88.413 9.50493V7.60333H87.8477V6.97533H88.413V6.28413L89.2557 6.03613V6.97453H90.2025V7.60333H90.2033Z" fill="white"/>
<path id="Vector_22" d="M94.7547 10.7457H93.894V8.60174C93.894 7.92574 93.6347 7.58734 93.1153 7.58734C92.7165 7.58734 92.4441 7.78334 92.2948 8.17534C92.2694 8.25774 92.2546 8.35854 92.2546 8.47694V10.7449H91.3955V5.24414H92.2546V7.51694H92.271C92.5418 7.10334 92.9299 6.89694 93.4329 6.89694C93.789 6.89694 94.0835 7.01054 94.3174 7.23854C94.6086 7.52254 94.7547 7.94494 94.7547 8.50334V10.7457V10.7457Z" fill="white"/>
<path id="Vector_23" d="M99.4515 8.68182C99.4515 8.83222 99.44 8.95862 99.4195 9.06182H96.8406C96.8521 9.43462 96.9752 9.71862 97.2139 9.91542C97.4322 10.0914 97.7136 10.1794 98.0582 10.1794C98.4398 10.1794 98.7877 10.1202 99.1011 10.001L99.2357 10.5834C98.8689 10.7386 98.4373 10.8162 97.9376 10.8162C97.3386 10.8162 96.8668 10.6442 96.5255 10.3002C96.1825 9.95622 96.0127 9.49462 96.0127 8.91542C96.0127 8.34662 96.1711 7.87302 96.4902 7.49542C96.8234 7.09222 97.2738 6.89062 97.8424 6.89062C98.3987 6.89062 98.8213 7.09222 99.1068 7.49542C99.3374 7.81542 99.4515 8.21142 99.4515 8.68182ZM98.631 8.46502C98.6375 8.21622 98.5809 8.00182 98.4644 7.82102C98.3151 7.58822 98.0878 7.47142 97.7801 7.47142C97.4995 7.47142 97.2705 7.58502 97.0958 7.81302C96.953 7.99462 96.8685 8.21142 96.8406 8.46502H98.631Z" fill="white"/>
</g>
</g>
</g>
</g>
</svg>
