<svg width="112" height="32" viewBox="0 0 112 32" fill="none" xmlns="http://www.w3.org/2000/svg">
<g id="googleplay">
<path id="path14" d="M107.289 32H4.86621C2.61393 32 0.769287 30.199 0.769287 28V4.00001C0.769287 1.80101 2.61393 6.41535e-06 4.86621 6.41535e-06H107.289C109.542 6.41535e-06 111.386 1.80101 111.386 4.00001V28C111.386 30.199 109.542 32 107.289 32Z" fill="#202020"/>
<path id="path16" d="M107.289 0.641005C109.186 0.641005 110.73 2.14801 110.73 4.00001V28C110.73 29.852 109.186 31.359 107.289 31.359H4.86621C2.96934 31.359 1.42582 29.852 1.42582 28V4.00001C1.42582 2.14801 2.96934 0.641005 4.86621 0.641005H107.289ZM107.289 6.41535e-06H4.86621C2.61393 6.41535e-06 0.769287 1.80101 0.769287 4.00001V28C0.769287 30.199 2.61393 32 4.86621 32H107.289C109.542 32 111.386 30.199 111.386 28V4.00001C111.386 1.80101 109.542 6.41535e-06 107.289 6.41535e-06Z" fill="#A6A6A6"/>
<g id="g18">
<path id="path20" d="M39.6217 8.19421C39.6217 8.86221 39.4168 9.39721 39.0133 9.79621C38.5493 10.2692 37.945 10.5072 37.2045 10.5072C36.4967 10.5072 35.8924 10.2652 35.3967 9.78821C34.9 9.30421 34.6521 8.71021 34.6521 7.99921C34.6521 7.28821 34.9 6.69421 35.3967 6.21421C35.8924 5.73321 36.4967 5.49121 37.2045 5.49121C37.5568 5.49121 37.8928 5.56221 38.2133 5.69421C38.5329 5.82721 38.7931 6.00721 38.9815 6.22921L38.5534 6.65121C38.2246 6.27221 37.777 6.08521 37.2045 6.08521C36.6883 6.08521 36.2407 6.26121 35.8607 6.61621C35.4848 6.97221 35.2963 7.43321 35.2963 7.99921C35.2963 8.56521 35.4848 9.03021 35.8607 9.38621C36.2407 9.73721 36.6883 9.91721 37.2045 9.91721C37.7524 9.91721 38.2134 9.73721 38.577 9.38221C38.8166 9.14721 38.9528 8.82321 38.9887 8.40921H37.2045V7.83121H39.5848C39.6135 7.95621 39.6217 8.07721 39.6217 8.19421V8.19421Z" fill="white" stroke="white" stroke-width="0.16" stroke-miterlimit="10"/>
</g>
<g id="g22">
<path id="path24" d="M43.3979 6.19154H41.162V7.71154H43.1777V8.28954H41.162V9.80954H43.3979V10.3985H40.5291V5.60254H43.3979V6.19154Z" fill="white" stroke="white" stroke-width="0.16" stroke-miterlimit="10"/>
</g>
<g id="g26">
<path id="path28" d="M46.0647 10.3985H45.4317V6.19154H44.0603V5.60254H47.4372V6.19154H46.0647V10.3985V10.3985Z" fill="white" stroke="white" stroke-width="0.16" stroke-miterlimit="10"/>
</g>
<g id="g30">
<path id="path32" d="M49.8806 10.3985V5.60254H50.5126V10.3985H49.8806Z" fill="white" stroke="white" stroke-width="0.16" stroke-miterlimit="10"/>
</g>
<g id="g34">
<path id="path36" d="M53.3128 10.3985H52.6849V6.19154H51.3083V5.60254H54.6893V6.19154H53.3128V10.3985Z" fill="white" stroke="white" stroke-width="0.16" stroke-miterlimit="10"/>
</g>
<g id="g38">
<path id="path40" d="M61.0831 9.78119C60.5986 10.2662 59.9984 10.5082 59.2825 10.5082C58.5625 10.5082 57.9623 10.2662 57.4778 9.78119C56.9944 9.29719 56.7537 8.70319 56.7537 8.00019C56.7537 7.29719 56.9944 6.70319 57.4778 6.21919C57.9623 5.73419 58.5625 5.49219 59.2825 5.49219C59.9943 5.49219 60.5945 5.73419 61.079 6.22319C61.5665 6.71119 61.8072 7.30119 61.8072 8.00019C61.8072 8.70319 61.5665 9.29719 61.0831 9.78119ZM57.9459 9.37919C58.3105 9.73819 58.754 9.91819 59.2825 9.91819C59.8069 9.91819 60.2545 9.73819 60.615 9.37919C60.9786 9.02019 61.163 8.55919 61.163 8.00019C61.163 7.44119 60.9786 6.98019 60.615 6.62119C60.2545 6.26219 59.8069 6.08219 59.2825 6.08219C58.754 6.08219 58.3105 6.26219 57.9459 6.62119C57.5823 6.98019 57.3979 7.44119 57.3979 8.00019C57.3979 8.55919 57.5823 9.02019 57.9459 9.37919V9.37919Z" fill="white" stroke="white" stroke-width="0.16" stroke-miterlimit="10"/>
</g>
<g id="g42">
<path id="path44" d="M62.6951 10.3985V5.60254H63.4632L65.8517 9.33254H65.8794L65.8517 8.41054V5.60254H66.4837V10.3985H65.8241L63.3229 6.48454H63.2953L63.3229 7.41054V10.3985H62.6951V10.3985Z" fill="white" stroke="white" stroke-width="0.16" stroke-miterlimit="10"/>
</g>
<path id="path46" d="M56.5984 17.4017C54.6739 17.4017 53.1017 18.8317 53.1017 20.8047C53.1017 22.7617 54.6739 24.2067 56.5984 24.2067C58.5271 24.2067 60.0993 22.7617 60.0993 20.8047C60.0993 18.8317 58.5271 17.4017 56.5984 17.4017ZM56.5984 22.8667C55.5425 22.8667 54.634 22.0157 54.634 20.8047C54.634 19.5777 55.5425 18.7417 56.5984 18.7417C57.6544 18.7417 58.567 19.5777 58.567 20.8047C58.567 22.0157 57.6544 22.8667 56.5984 22.8667V22.8667ZM48.9689 17.4017C47.0403 17.4017 45.4722 18.8317 45.4722 20.8047C45.4722 22.7617 47.0403 24.2067 48.9689 24.2067C50.8965 24.2067 52.4657 22.7617 52.4657 20.8047C52.4657 18.8317 50.8965 17.4017 48.9689 17.4017ZM48.9689 22.8667C47.9119 22.8667 47.0004 22.0157 47.0004 20.8047C47.0004 19.5777 47.9119 18.7417 48.9689 18.7417C50.0249 18.7417 50.9334 19.5777 50.9334 20.8047C50.9334 22.0157 50.0249 22.8667 48.9689 22.8667ZM39.8902 18.4447V19.8907H43.4268C43.3234 20.6987 43.0468 21.2927 42.6228 21.7067C42.1066 22.2067 41.3026 22.7617 39.8902 22.7617C37.7137 22.7617 36.0094 21.0467 36.0094 18.9217C36.0094 16.7967 37.7137 15.0817 39.8902 15.0817C41.067 15.0817 41.9233 15.5307 42.5552 16.1127L43.5989 15.0937C42.715 14.2697 41.5392 13.6367 39.8902 13.6367C36.9056 13.6367 34.3972 16.0077 34.3972 18.9217C34.3972 21.8357 36.9056 24.2067 39.8902 24.2067C41.5033 24.2067 42.715 23.6907 43.6675 22.7227C44.6436 21.7697 44.9478 20.4297 44.9478 19.3477C44.9478 19.0117 44.9191 18.7027 44.8679 18.4447H39.8902ZM77.0144 19.5657C76.7266 18.8047 75.8386 17.4017 74.0298 17.4017C72.2374 17.4017 70.7451 18.7807 70.7451 20.8047C70.7451 22.7107 72.2221 24.2067 74.2019 24.2067C75.8028 24.2067 76.7266 23.2537 77.1066 22.6987L75.9185 21.9257C75.5221 22.4917 74.9824 22.8667 74.2019 22.8667C73.4266 22.8667 72.8704 22.5197 72.514 21.8357L77.1752 19.9527L77.0144 19.5657V19.5657ZM72.262 20.6987C72.2221 19.3867 73.3057 18.7147 74.0821 18.7147C74.6905 18.7147 75.2067 19.0117 75.3787 19.4367L72.262 20.6987V20.6987ZM68.4734 23.9997H70.0056V13.9997H68.4734V23.9997ZM65.964 18.1597H65.9128C65.5687 17.7617 64.9121 17.4017 64.0805 17.4017C62.3352 17.4017 60.7394 18.8977 60.7394 20.8157C60.7394 22.7227 62.3352 24.2067 64.0805 24.2067C64.9121 24.2067 65.5687 23.8437 65.9128 23.4337H65.964V23.9217C65.964 25.2227 65.2522 25.9217 64.104 25.9217C63.1679 25.9217 62.5871 25.2617 62.3475 24.7067L61.0149 25.2497C61.399 26.1517 62.4161 27.2617 64.104 27.2617C65.9005 27.2617 67.4164 26.2297 67.4164 23.7187V17.6087H65.964V18.1597V18.1597ZM64.2116 22.8667C63.1556 22.8667 62.2717 22.0037 62.2717 20.8157C62.2717 19.6167 63.1556 18.7417 64.2116 18.7417C65.2522 18.7417 66.0726 19.6167 66.0726 20.8157C66.0726 22.0037 65.2522 22.8667 64.2116 22.8667V22.8667ZM84.1881 13.9997H80.5234V23.9997H82.0516V20.2107H84.1881C85.8853 20.2107 87.5497 19.0117 87.5497 17.1047C87.5497 15.1987 85.8812 13.9997 84.1881 13.9997V13.9997ZM84.2281 18.8197H82.0516V15.3907H84.2281C85.3691 15.3907 86.0205 16.3157 86.0205 17.1047C86.0205 17.8787 85.3691 18.8197 84.2281 18.8197ZM93.6746 17.3827C92.5705 17.3827 91.4223 17.8587 90.9501 18.9137L92.3062 19.4687C92.5981 18.9137 93.1348 18.7337 93.7022 18.7337C94.495 18.7337 95.299 19.1987 95.3113 20.0197V20.1247C95.0348 19.9687 94.4428 19.7377 93.7145 19.7377C92.254 19.7377 90.7658 20.5227 90.7658 21.9877C90.7658 23.3277 91.9621 24.1907 93.3069 24.1907C94.3352 24.1907 94.9026 23.7377 95.2591 23.2107H95.3113V23.9837H96.7872V20.1477C96.7872 18.3747 95.4311 17.3827 93.6746 17.3827ZM93.4902 22.8627C92.9904 22.8627 92.2939 22.6207 92.2939 22.0157C92.2939 21.2417 93.1625 20.9447 93.9142 20.9447C94.5872 20.9447 94.9026 21.0897 95.3113 21.2807C95.1915 22.2067 94.3751 22.8627 93.4902 22.8627V22.8627ZM102.164 17.6017L100.408 21.9367H100.356L98.5397 17.6017H96.8917L99.6202 23.6597L98.0634 27.0307H99.6602L103.865 17.6017H102.164V17.6017ZM88.3895 23.9997H89.9218V13.9997H88.3895V23.9997Z" fill="white"/>
<g id="g48">
<path id="path64" d="M9.3192 6.03134C9.0785 6.27734 8.93921 6.66034 8.93921 7.15634V24.8483C8.93921 25.3443 9.0785 25.7273 9.3192 25.9733L9.3786 26.0273L19.5328 16.1173V15.8833L9.3786 5.97334L9.3192 6.03134Z" fill="url(#paint0_linear_1118_3512)"/>
</g>
<g id="g66">
<path id="path78" d="M22.9139 19.4219L19.533 16.1169V15.8829L22.918 12.5779L22.9938 12.6209L27.0027 14.8479C28.1467 15.4799 28.1467 16.5199 27.0027 17.1559L22.9938 19.3789L22.9139 19.4219V19.4219Z" fill="url(#paint1_linear_1118_3512)"/>
</g>
<g id="g80">
<path id="path88" d="M22.9926 19.379L19.5317 16L9.31812 25.973C9.6981 26.363 10.3178 26.41 11.0224 26.02L22.9926 19.379" fill="url(#paint2_linear_1118_3512)"/>
</g>
<g id="g90">
<path id="path104" d="M22.9926 12.621L11.0224 5.98C10.3178 5.594 9.6981 5.641 9.31812 6.031L19.5317 16L22.9926 12.621Z" fill="url(#paint3_linear_1118_3512)"/>
</g>
</g>
<defs>
<linearGradient id="paint0_linear_1118_3512" x1="18.6313" y1="25.0326" x2="5.20918" y2="11.2853" gradientUnits="userSpaceOnUse">
<stop stop-color="#00A0FF"/>
<stop offset="0.0066" stop-color="#00A1FF"/>
<stop offset="0.2601" stop-color="#00BEFF"/>
<stop offset="0.5122" stop-color="#00D2FF"/>
<stop offset="0.7604" stop-color="#00DFFF"/>
<stop offset="1" stop-color="#00E3FF"/>
</linearGradient>
<linearGradient id="paint1_linear_1118_3512" x1="28.4924" y1="15.9988" x2="8.66587" y2="15.9988" gradientUnits="userSpaceOnUse">
<stop stop-color="#FFE000"/>
<stop offset="0.4087" stop-color="#FFBD00"/>
<stop offset="0.7754" stop-color="#FFA500"/>
<stop offset="1" stop-color="#FF9C00"/>
</linearGradient>
<linearGradient id="paint2_linear_1118_3512" x1="21.1107" y1="14.1631" x2="2.90928" y2="-4.47936" gradientUnits="userSpaceOnUse">
<stop stop-color="#FF3A44"/>
<stop offset="1" stop-color="#C31162"/>
</linearGradient>
<linearGradient id="paint3_linear_1118_3512" x1="6.74713" y1="31.859" x2="14.8749" y2="23.5344" gradientUnits="userSpaceOnUse">
<stop stop-color="#32A071"/>
<stop offset="0.0685" stop-color="#2DA771"/>
<stop offset="0.4762" stop-color="#15CF74"/>
<stop offset="0.8009" stop-color="#06E775"/>
<stop offset="1" stop-color="#00F076"/>
</linearGradient>
</defs>
</svg>
